<svg xmlns="http://www.w3.org/2000/svg" viewBox="0 0 100 100" width="100" height="100"><title>Drugy Drip</title><rect width="100" height="100" rx="22" fill="#0b0b0b"/><g fill="#49f23a"><path d="M48.2 60.2Q49.3 73.4 52.6 83.8L53.6 83.3Q51.1 72.4 51.8 60.2Z"/><path d="M50 62L48 63.8L47.6 64.4L47.2 64.7L47 64.2L46.5 64.8L46.2 65.2L45.9 64.5L45.5 65.1L45.1 65.5L44.8 64.8L44.4 65.4L44 65.7L43.7 65L43.3 65.6L42.9 65.9L42.6 65.2L42.2 65.8L41.8 66.1L41.5 65.3L41.1 65.9L40.6 66.1L40.4 65.4L39.9 65.9L39.5 66.2L39.3 65.5L38.8 66L38.4 66.2L38.1 65.5L37.7 66L37.3 66.2L37 65.6L36.6 66L36.1 66.1L35.9 65.6L35.4 65.9L35 66L34.7 65.5L34.3 65.8L33.8 65.9L33.6 65.5L33.1 65.7L32.7 65.8L32.5 65.4L32 65.6L31.5 65.6L31.3 65.3L30.8 65.4L30.4 65.4L30.2 65.2L29.7 65.3L29.2 65.2L28.4 65L29.1 64.6L29.6 64.5L30.1 64.3L30.2 64.1L30.6 64L31.1 63.9L31.3 63.6L31.7 63.5L32.2 63.5L32.3 63.1L32.8 63.1L33.3 63.2L33.4 62.7L33.8 62.7L34.4 62.8L34.5 62.2L34.9 62.3L35.4 62.5L35.5 61.9L36 61.9L36.5 62.2L36.6 61.5L37.1 61.6L37.6 61.9L37.7 61.2L38.2 61.3L38.7 61.6L38.8 60.9L39.2 61L39.8 61.4L39.9 60.6L40.3 60.7L40.9 61.2L41 60.4L41.4 60.5L42 61L42.1 60.2L42.5 60.4L43.1 60.9L43.2 60.1L43.7 60.3L44.2 60.8L44.3 60L44.8 60.2L45.4 60.7L45.4 60L45.9 60.3L46.5 60.7L46.6 60.1L47.1 60.4L47.6 60.9L50 62Z"/><path d="M50 62L52.4 60.9L52.9 60.4L53.4 60.1L53.5 60.7L54.1 60.3L54.6 60L54.6 60.7L55.2 60.2L55.7 60L55.8 60.8L56.3 60.3L56.8 60.1L56.9 60.9L57.5 60.4L57.9 60.2L58 61L58.6 60.5L59 60.4L59.1 61.2L59.7 60.7L60.1 60.6L60.2 61.4L60.8 61L61.2 60.9L61.3 61.6L61.8 61.3L62.3 61.2L62.4 61.9L62.9 61.6L63.4 61.5L63.5 62.2L64 61.9L64.5 61.9L64.6 62.5L65.1 62.3L65.5 62.2L65.6 62.8L66.2 62.7L66.6 62.7L66.7 63.2L67.2 63.1L67.7 63.1L67.8 63.5L68.3 63.5L68.7 63.6L68.9 63.9L69.4 64L69.8 64.1L69.9 64.3L70.4 64.5L70.9 64.6L71.6 65L70.8 65.2L70.3 65.3L69.8 65.2L69.6 65.4L69.2 65.4L68.7 65.3L68.5 65.6L68 65.6L67.5 65.4L67.3 65.8L66.9 65.7L66.4 65.5L66.2 65.9L65.7 65.8L65.3 65.5L65 66L64.6 65.9L64.1 65.6L63.9 66.1L63.4 66L63 65.6L62.7 66.2L62.3 66L61.9 65.5L61.6 66.2L61.2 66L60.7 65.5L60.5 66.2L60.1 65.9L59.6 65.4L59.4 66.1L58.9 65.9L58.5 65.3L58.2 66.1L57.8 65.8L57.4 65.2L57.1 65.9L56.7 65.6L56.3 65L56 65.7L55.6 65.4L55.2 64.8L54.9 65.5L54.5 65.1L54.1 64.5L53.8 65.2L53.5 64.8L53 64.2L52.8 64.7L52.4 64.4L52 63.8L50 62Z"/><path d="M50 62L45.7 62.1L44.6 62.4L43.7 62.5L44 61.6L42.8 61.9L41.9 61.9L42.3 60.8L41.1 61.2L40.3 61.2L40.7 60L39.5 60.4L38.6 60.4L39.1 59.2L37.9 59.5L37.1 59.4L37.5 58.2L36.4 58.5L35.6 58.5L36 57.2L34.9 57.5L34.1 57.4L34.5 56.2L33.4 56.4L32.6 56.3L33 55.1L32 55.3L31.2 55.1L31.6 54L30.6 54.1L29.8 53.9L30.2 52.9L29.2 52.9L28.5 52.7L28.8 51.7L27.8 51.7L27.2 51.4L27.4 50.5L26.5 50.4L25.9 50.1L26 49.3L25.2 49.1L24.6 48.7L24.7 48L23.9 47.7L23.3 47.3L23.4 46.7L22.7 46.3L22.1 45.8L22.1 45.4L21.4 44.9L20.9 44.4L20 43.3L21.4 43.6L22.1 43.8L22.8 44.2L23.3 44L23.9 44.3L24.6 44.8L25.1 44.5L25.7 44.8L26.3 45.4L26.9 45L27.5 45.4L28.1 46.1L28.7 45.5L29.3 46L29.8 46.7L30.5 46.1L31 46.6L31.5 47.4L32.2 46.8L32.7 47.3L33.1 48.2L33.9 47.4L34.4 48L34.8 49L35.6 48.1L36.1 48.7L36.4 49.8L37.3 48.9L37.7 49.5L38 50.6L38.9 49.7L39.3 50.4L39.6 51.5L40.5 50.6L40.9 51.3L41.1 52.4L42 51.5L42.4 52.2L42.7 53.4L43.5 52.5L43.9 53.3L44.1 54.5L45 53.6L45.4 54.4L45.6 55.6L46.4 54.8L46.7 55.6L47 56.8L47.7 56.1L48 56.9L48.3 58.1L50 62Z"/><path d="M50 62L51.7 58.1L52 56.9L52.3 56.1L53 56.8L53.3 55.6L53.6 54.8L54.4 55.6L54.6 54.4L55 53.6L55.9 54.5L56.1 53.3L56.5 52.5L57.3 53.4L57.6 52.2L58 51.5L58.9 52.4L59.1 51.3L59.5 50.6L60.4 51.5L60.7 50.4L61.1 49.7L62 50.6L62.3 49.5L62.7 48.9L63.6 49.8L63.9 48.7L64.4 48.1L65.2 49L65.6 48L66.1 47.4L66.9 48.2L67.3 47.3L67.8 46.8L68.5 47.4L69 46.6L69.5 46.1L70.2 46.7L70.7 46L71.3 45.5L71.9 46.1L72.5 45.4L73.1 45L73.7 45.4L74.3 44.8L74.9 44.5L75.4 44.8L76.1 44.3L76.7 44L77.2 44.2L77.9 43.8L78.6 43.6L80 43.3L79.1 44.4L78.6 44.9L77.9 45.4L77.9 45.8L77.3 46.3L76.6 46.7L76.7 47.3L76.1 47.7L75.3 48L75.4 48.7L74.8 49.1L74 49.3L74.1 50.1L73.5 50.4L72.6 50.5L72.8 51.4L72.2 51.7L71.2 51.7L71.5 52.7L70.8 52.9L69.8 52.9L70.2 53.9L69.4 54.1L68.4 54L68.8 55.1L68 55.3L67 55.1L67.4 56.3L66.6 56.4L65.5 56.2L65.9 57.4L65.1 57.5L64 57.2L64.4 58.5L63.6 58.5L62.5 58.2L62.9 59.4L62.1 59.5L60.9 59.2L61.4 60.4L60.5 60.4L59.3 60L59.7 61.2L58.9 61.2L57.7 60.8L58.1 61.9L57.2 61.9L56 61.6L56.3 62.5L55.4 62.4L54.3 62.1L50 62Z"/><path d="M50 62L45.1 59.4L43.7 59L42.6 58.5L43.5 57.6L42 57.2L41 56.7L42.1 55.7L40.6 55.3L39.6 54.8L40.8 53.8L39.3 53.4L38.3 52.8L39.6 51.7L38.1 51.3L37.2 50.8L38.5 49.7L37 49.3L36.1 48.7L37.4 47.6L36 47.2L35.1 46.6L36.4 45.5L35 45L34.2 44.4L35.4 43.3L34.1 42.8L33.4 42.2L34.5 41.2L33.3 40.6L32.6 39.9L33.7 39L32.6 38.4L31.9 37.7L32.9 36.7L31.9 36.1L31.3 35.3L32.1 34.5L31.2 33.8L30.7 33L31.4 32.2L30.6 31.5L30.1 30.6L30.7 29.9L30 29.1L29.6 28.3L30.1 27.6L29.5 26.7L29.2 25.8L29.4 25.3L29 24.3L28.8 23.4L28.5 21.6L29.9 22.8L30.5 23.5L31.1 24.4L31.7 24.5L32.2 25.3L32.7 26.2L33.4 26.3L33.9 27L34.2 28.1L35.1 28L35.5 28.8L35.7 29.9L36.8 29.8L37.1 30.6L37.2 31.8L38.4 31.6L38.7 32.5L38.6 33.7L39.9 33.4L40.2 34.3L40 35.6L41.4 35.3L41.6 36.2L41.4 37.5L42.8 37.1L43 38.1L42.7 39.5L44.2 39.1L44.3 40.1L43.9 41.5L45.5 41L45.5 42.1L45.1 43.5L46.7 43L46.7 44.1L46.3 45.5L47.9 45.1L47.8 46.2L47.3 47.6L48.9 47.2L48.8 48.3L48.3 49.8L49.8 49.4L49.7 50.5L49.2 51.9L50.6 51.6L50.5 52.7L50 54.2L51.2 53.9L51.1 55.1L50.6 56.5L50 62Z"/><path d="M50 62L49.4 56.5L48.9 55.1L48.8 53.9L50 54.2L49.5 52.7L49.4 51.6L50.8 51.9L50.3 50.5L50.2 49.4L51.7 49.8L51.2 48.3L51.1 47.2L52.7 47.6L52.2 46.2L52.1 45.1L53.7 45.5L53.3 44.1L53.3 43L54.9 43.5L54.5 42.1L54.5 41L56.1 41.5L55.7 40.1L55.8 39.1L57.3 39.5L57 38.1L57.2 37.1L58.6 37.5L58.4 36.2L58.6 35.3L60 35.6L59.8 34.3L60.1 33.4L61.4 33.7L61.3 32.5L61.6 31.6L62.8 31.8L62.9 30.6L63.2 29.8L64.3 29.9L64.5 28.8L64.9 28L65.8 28.1L66.1 27L66.6 26.3L67.3 26.2L67.8 25.3L68.3 24.5L68.9 24.4L69.5 23.5L70.1 22.8L71.5 21.6L71.2 23.4L71 24.3L70.6 25.3L70.8 25.8L70.5 26.7L69.9 27.6L70.4 28.3L70 29.1L69.3 29.9L69.9 30.6L69.4 31.5L68.6 32.2L69.3 33L68.8 33.8L67.9 34.5L68.7 35.3L68.1 36.1L67.1 36.7L68.1 37.7L67.4 38.4L66.3 39L67.4 39.9L66.7 40.6L65.5 41.2L66.6 42.2L65.9 42.8L64.6 43.3L65.8 44.4L65 45L63.6 45.5L64.9 46.6L64 47.2L62.6 47.6L63.9 48.7L63 49.3L61.5 49.7L62.8 50.8L61.9 51.3L60.4 51.7L61.7 52.8L60.7 53.4L59.2 53.8L60.4 54.8L59.4 55.3L57.9 55.7L59 56.7L58 57.2L56.5 57.6L57.4 58.5L56.3 59L54.9 59.4L50 62Z"/><path d="M50 62L46.5 56.8L45.2 55.6L44.5 54.5L45.9 54.1L44.6 52.9L43.8 51.9L45.4 51.5L44.1 50.3L43.4 49.2L45.2 48.8L43.9 47.6L43.2 46.6L45 46.2L43.7 45L43.1 43.9L45 43.5L43.7 42.3L43.2 41.2L45 40.8L43.8 39.6L43.3 38.6L45.1 38.2L44 37L43.6 35.9L45.3 35.5L44.3 34.3L43.9 33.2L45.6 32.8L44.7 31.7L44.3 30.6L45.9 30.2L45.1 29L44.9 27.9L46.3 27.5L45.6 26.3L45.4 25.3L46.7 24.9L46.2 23.7L46.1 22.6L47.2 22.2L46.8 21L46.8 19.9L47.7 19.5L47.5 18.3L47.6 17.3L48.3 16.9L48.2 15.7L48.4 14.6L48.9 14.2L49 13L49.3 12L50 10L50.7 12L51 13L51.1 14.2L51.6 14.6L51.8 15.7L51.7 16.9L52.4 17.3L52.5 18.3L52.3 19.5L53.2 19.9L53.2 21L52.8 22.2L53.9 22.6L53.8 23.7L53.3 24.9L54.6 25.3L54.4 26.3L53.7 27.5L55.1 27.9L54.9 29L54.1 30.2L55.7 30.6L55.3 31.7L54.4 32.8L56.1 33.2L55.7 34.3L54.7 35.5L56.4 35.9L56 37L54.9 38.2L56.7 38.6L56.2 39.6L55 40.8L56.8 41.2L56.3 42.3L55 43.5L56.9 43.9L56.3 45L55 46.2L56.8 46.6L56.1 47.6L54.8 48.8L56.6 49.2L55.9 50.3L54.6 51.5L56.2 51.9L55.4 52.9L54.1 54.1L55.5 54.5L54.8 55.6L53.5 56.8L50 62Z"/></g><g fill="none" stroke="#0b0b0b" stroke-width="0.6" stroke-linecap="round"><path d="M49.1 62.1L31.4 64.6"/><path d="M50.9 62.1L68.6 64.6"/><path d="M48.8 61.3L24.2 45.9"/><path d="M51.2 61.3L75.8 45.9"/><path d="M49.1 60.4L31.5 27.3"/><path d="M50.9 60.4L68.5 27.3"/><path d="M50 59.9L50 17.3"/></g><g transform="translate(2.5 2.5)" fill="#1f8a17" stroke="#1f8a17" stroke-width="7" stroke-linejoin="round"><path d="M36.3 80H26.9Q24.9 80 24.2 79.7Q23.6 79.4 23.6 78.8V53.6Q23.6 52.5 24.4 52.1Q25.3 51.6 27.5 51.6H36.5Q44.2 51.6 47.1 54.6Q50 57.6 50 65.6Q50 73.6 47 76.8Q43.9 80 36.3 80ZM36 57.6Q35 57.6 34.7 57.7V73.9L36.2 74Q37.4 74 38.1 72.1Q38.7 70.2 38.7 65.5Q38.7 60.8 38 59.2Q37.4 57.6 36 57.6Z"/><path d="M63.2 80H53.7Q51.8 80 51.1 79.7Q50.4 79.4 50.4 78.8V53.6Q50.4 52.5 51.3 52.1Q52.2 51.6 54.3 51.6H63.3Q71 51.6 73.9 54.6Q76.8 57.6 76.8 65.6Q76.8 73.6 73.8 76.8Q70.8 80 63.2 80ZM62.8 57.6Q61.9 57.6 61.6 57.7V73.9L63.1 74Q64.3 74 64.9 72.1Q65.5 70.2 65.5 65.5Q65.5 60.8 64.9 59.2Q64.2 57.6 62.8 57.6Z"/><path d="M66.3 76.8L64.6 80Q65.4 80 65.4 80.8L65.5 86.7L69.1 86.7L69.2 80Q69.2 79.2 70.1 79.2L68.3 76.8Z"/><circle cx="67.3" cy="86.7" r="2.2"/></g><g fill="#0b0b0b" stroke="#0b0b0b" stroke-width="7" stroke-linejoin="round"><path d="M36.3 80H26.9Q24.9 80 24.2 79.7Q23.6 79.4 23.6 78.8V53.6Q23.6 52.5 24.4 52.1Q25.3 51.6 27.5 51.6H36.5Q44.2 51.6 47.1 54.6Q50 57.6 50 65.6Q50 73.6 47 76.8Q43.9 80 36.3 80ZM36 57.6Q35 57.6 34.7 57.7V73.9L36.2 74Q37.4 74 38.1 72.1Q38.7 70.2 38.7 65.5Q38.7 60.8 38 59.2Q37.4 57.6 36 57.6Z"/><path d="M63.2 80H53.7Q51.8 80 51.1 79.7Q50.4 79.4 50.4 78.8V53.6Q50.4 52.5 51.3 52.1Q52.2 51.6 54.3 51.6H63.3Q71 51.6 73.9 54.6Q76.8 57.6 76.8 65.6Q76.8 73.6 73.8 76.8Q70.8 80 63.2 80ZM62.8 57.6Q61.9 57.6 61.6 57.7V73.9L63.1 74Q64.3 74 64.9 72.1Q65.5 70.2 65.5 65.5Q65.5 60.8 64.9 59.2Q64.2 57.6 62.8 57.6Z"/><path d="M66.3 76.8L64.6 80Q65.4 80 65.4 80.8L65.5 86.7L69.1 86.7L69.2 80Q69.2 79.2 70.1 79.2L68.3 76.8Z"/><circle cx="67.3" cy="86.7" r="2.2"/></g><g fill="#ffffff"><path d="M36.3 80H26.9Q24.9 80 24.2 79.7Q23.6 79.4 23.6 78.8V53.6Q23.6 52.5 24.4 52.1Q25.3 51.6 27.5 51.6H36.5Q44.2 51.6 47.1 54.6Q50 57.6 50 65.6Q50 73.6 47 76.8Q43.9 80 36.3 80ZM36 57.6Q35 57.6 34.7 57.7V73.9L36.2 74Q37.4 74 38.1 72.1Q38.7 70.2 38.7 65.5Q38.7 60.8 38 59.2Q37.4 57.6 36 57.6Z"/><path d="M63.2 80H53.7Q51.8 80 51.1 79.7Q50.4 79.4 50.4 78.8V53.6Q50.4 52.5 51.3 52.1Q52.2 51.6 54.3 51.6H63.3Q71 51.6 73.9 54.6Q76.8 57.6 76.8 65.6Q76.8 73.6 73.8 76.8Q70.8 80 63.2 80ZM62.8 57.6Q61.9 57.6 61.6 57.7V73.9L63.1 74Q64.3 74 64.9 72.1Q65.5 70.2 65.5 65.5Q65.5 60.8 64.9 59.2Q64.2 57.6 62.8 57.6Z"/><path d="M66.3 76.8L64.6 80Q65.4 80 65.4 80.8L65.5 86.7L69.1 86.7L69.2 80Q69.2 79.2 70.1 79.2L68.3 76.8Z"/><circle cx="67.3" cy="86.7" r="2.2"/></g></svg>
